<svg xmlns="http://www.w3.org/2000/svg" version="1.1" xmlns:xlink="http://www.w3.org/1999/xlink" xmlns:svgjs="http://svgjs.dev/svgjs" width="1500" height="465" viewBox="0 0 1500 465"><g transform="matrix(1,0,0,1,-0.9090909090909918,0.06580298562019493)"><svg viewBox="0 0 396 123" data-background-color="#ffffff" preserveAspectRatio="xMidYMid meet" height="465" width="1500" xmlns="http://www.w3.org/2000/svg" xmlns:xlink="http://www.w3.org/1999/xlink"><g id="tight-bounds" transform="matrix(1,0,0,1,0.2400000000000091,-0.017405951035016187)"><svg viewBox="0 0 395.52 123.03481190207005" height="123.03481190207005" width="395.52"><g><svg viewBox="0 0 622.091025142444 193.51449298231827" height="123.03481190207005" width="395.52"><g transform="matrix(1,0,0,1,0,26.744767119842834)"><svg viewBox="0 0 395.52 140.0249587426326" height="140.0249587426326" width="395.52"><g id="textblocktransform"><svg viewBox="0 0 395.52 140.0249587426326" height="140.0249587426326" width="395.52" id="textblock"><g><svg viewBox="0 0 395.52 140.0249587426326" height="140.0249587426326" width="395.52"><g transform="matrix(1,0,0,1,0,0)"><svg width="395.52" viewBox="2.75 -34.45 127.24000000000001 45.050000000000004" height="140.0249587426326" data-palette-color="#e8772e"><path d="M27.95-34.45L30.25 0 25.95 0 25.05-15.65Q24.4-25.35 24.5-29.8L24.5-29.8 18.65-3.9 14.4-3.9 8.25-29.85 8.3-27.55Q8.3-23.65 7.9-15.35L7.9-15.35 7.05 0 2.75 0 5.1-34.45 11-34.45 16.6-9.2 21.9-34.45 27.95-34.45ZM53.4-26.35L46.2 0.15Q44.95 4.7 42.5 7.35 40.05 10 35.7 10.6L35.7 10.6 35.2 7.25Q38.35 6.55 39.8 4.95 41.25 3.35 42.25 0L42.25 0 40.6 0 33.5-26.35 38-26.35 43.5-3.2 48.95-26.35 53.4-26.35ZM68.3-26.9Q71.15-26.9 72.85-24.85 74.55-22.8 74.55-19.35L74.55-19.35 74.55 0 70.15 0 70.15-18.75Q70.15-21.3 69.42-22.38 68.7-23.45 67.25-23.45L67.25-23.45Q64.4-23.45 61.95-18.55L61.95-18.55 61.95 0 57.55 0 57.55-26.35 61.35-26.35 61.7-22.4Q63-24.6 64.55-25.75 66.1-26.9 68.3-26.9L68.3-26.9ZM91.59-3.95L93.29-1.2Q91.04 0.6 88.24 0.6L88.24 0.6Q85.29 0.6 83.67-1.15 82.04-2.9 82.04-5.85L82.04-5.85 82.04-22.9 78.49-22.9 78.49-26.35 82.04-26.35 82.04-32.3 86.44-32.85 86.44-26.35 91.54-26.35 91.09-22.9 86.44-22.9 86.44-5.8Q86.44-3.05 88.79-3.05L88.79-3.05Q89.59-3.05 90.19-3.25 90.79-3.45 91.59-3.95L91.59-3.95ZM107.04-26.9Q108.14-26.9 109.04-26.6L109.04-26.6 108.29-22.35Q107.29-22.6 106.49-22.6L106.49-22.6Q104.54-22.6 103.29-20.85 102.04-19.1 101.34-15.5L101.34-15.5 101.34 0 96.94 0 96.94-26.35 100.74-26.35 101.09-21.45Q102.94-26.9 107.04-26.9L107.04-26.9ZM128.29-5.6Q128.29-4.2 128.69-3.53 129.09-2.85 129.99-2.45L129.99-2.45 129.04 0.6Q127.19 0.3 126.11-0.58 125.04-1.45 124.59-3.2L124.59-3.2Q122.44 0.6 118.29 0.6L118.29 0.6Q115.04 0.6 113.11-1.58 111.19-3.75 111.19-7.35L111.19-7.35Q111.19-11.55 113.79-13.78 116.39-16 121.34-16L121.34-16 123.94-16 123.94-18.4Q123.94-21 122.91-22.2 121.89-23.4 119.74-23.4L119.74-23.4Q117.19-23.4 113.79-22.05L113.79-22.05 112.69-25.15Q116.74-26.9 120.29-26.9L120.29-26.9Q124.34-26.9 126.31-24.73 128.29-22.55 128.29-18.6L128.29-18.6 128.29-5.6ZM119.19-2.7Q122.29-2.7 123.94-6.9L123.94-6.9 123.94-13.05 121.84-13.05Q118.69-13.05 117.21-11.7 115.74-10.35 115.74-7.55L115.74-7.55Q115.74-5.15 116.64-3.93 117.54-2.7 119.19-2.7L119.19-2.7Z" opacity="1" transform="matrix(1,0,0,1,0,0)" fill="#e8772e" class="wordmark-text-0" data-fill-palette-color="primary" id="text-0"></path></svg></g></svg></g></svg></g></svg></g><g transform="matrix(1,0,0,1,428.57653216012574,0)"><svg viewBox="0 0 193.51449298231827 193.51449298231827" height="193.51449298231827" width="193.51449298231827"><g><svg xmlns="http://www.w3.org/2000/svg" xmlns:xlink="http://www.w3.org/1999/xlink" version="1.1" x="0" y="0" viewBox="1 1 126 126" style="enable-background:new 0 0 128 128;" xml:space="preserve" height="193.51449298231827" width="193.51449298231827" class="icon-icon-0" data-fill-palette-color="accent" id="icon-0"><g fill="#e8772e" data-fill-palette-color="accent"><path d="M110.937 52.703c-7.691-4.44-16.653-5.62-25.231-3.321-8.267 2.215-15.218 7.411-19.687 14.668 9.403 17.409 3.288 39.323-13.954 49.278-5.771 3.331-12.084 4.915-18.313 4.915-0.632 0-1.264-0.028-1.894-0.062C41.271 123.777 52.257 127 64 127c31.814 0 58.104-23.586 62.378-54.223C124.154 64.602 118.837 57.265 110.937 52.703z" fill="#e8772e" data-fill-palette-color="accent"></path><path d="M64 1c-8.339 0-16.291 1.635-23.575 4.577C34.448 11.591 30.749 19.872 30.749 29c0 18.01 14.396 32.711 32.285 33.226 4.938-8.026 12.624-13.774 21.766-16.224 9.482-2.54 19.386-1.237 27.887 3.671 6.348 3.666 11.181 8.957 14.295 15.043C126.983 64.476 127 64.24 127 64 127 29.206 98.795 1 64 1z" fill="#e8772e" data-fill-palette-color="accent"></path><path d="M50.314 110.297c15.598-9.006 21.13-28.825 12.632-44.574C43.168 65.162 27.249 48.91 27.249 29c0-7.337 2.17-14.175 5.891-19.918C13.961 19.882 1 40.421 1 64c0 20.167 9.486 38.105 24.228 49.636C33.414 115.793 42.419 114.854 50.314 110.297z" fill="#e8772e" data-fill-palette-color="accent"></path></g></svg></g></svg></g></svg></g><defs></defs></svg><rect width="395.52" height="123.03481190207005" fill="none" stroke="none" visibility="hidden"></rect></g></svg></g></svg>